<?xml version="1.0" encoding="utf-8"?>
<!-- Generator: Adobe Illustrator 21.1.0, SVG Export Plug-In . SVG Version: 6.00 Build 0)  -->
<svg version="1.1" id="Ebene_1" xmlns="http://www.w3.org/2000/svg" xmlns:xlink="http://www.w3.org/1999/xlink" x="0px" y="0px"
	 viewBox="0 0 212 20" enable-background="new 0 0 212 20" xml:space="preserve">
<title>Unbenannt-2</title>
<g>
	<path fill="#9D9EA3" d="M191.65,0.01c0.52,1.16,0.95,2.35,1.31,3.58s0.61,2.47,0.78,3.74l-3.19-3.01L191.65,0.01z"/>
	<path fill="#9D9EA3" d="M184.87,14.25c-0.74-1.01-1.42-2.08-2.01-3.19c-0.59-1.13-1.11-2.29-1.54-3.5l3.73,2.32L184.87,14.25z"/>
	<path fill="#9D9EA3" d="M187.89,12.55c0.94,0.84,1.84,1.76,2.65,2.73c0.82,0.97,1.57,2.02,2.24,3.1l-4.12-1.5L187.89,12.55z"/>
	<path fill="#9D9EA3" d="M199.1,12.16c0.01,1.27-0.07,2.54-0.25,3.8c-0.17,1.26-0.44,2.5-0.79,3.73l-1.66-4.02L199.1,12.16z"/>
	<path fill="#9D9EA3" d="M195.16,4.19c1.22,0.38,2.39,0.86,3.54,1.43c1.15,0.55,2.25,1.2,3.31,1.91l-4.37,0.31L195.16,4.19z"/>
	<path fill="#D9DADD" d="M186.36,5.49c0.74-1.03,1.56-2.01,2.44-2.92c0.88-0.92,1.84-1.78,2.84-2.56l-1.07,4.25L186.36,5.49z"/>
	<path fill="#D9DADD" d="M181.31,7.53c1.27-0.14,2.54-0.18,3.81-0.14s2.53,0.17,3.79,0.4l-3.88,2.01L181.31,7.53z"/>
	<path fill="#D9DADD" d="M185.25,19.69c0.53-2.49,1.43-4.9,2.64-7.14l0.76,4.33L185.25,19.69z"/>
	<path fill="#D9DADD" d="M192.05,15.01c1.1-0.64,2.24-1.2,3.42-1.68c1.18-0.47,2.39-0.86,3.63-1.18l-2.69,3.48L192.05,15.01z"/>
	<path fill="#D9DADD" d="M195.69,11.79c-0.54-2.49-0.72-5.04-0.53-7.59l2.45,3.64L195.69,11.79z"/>
	<path fill="#5B5A5E" d="M193.75,7.32c-1.26-0.13-2.5-0.35-3.73-0.66c-1.24-0.31-2.45-0.7-3.63-1.19l4.25-1.21L193.75,7.32z"/>
	<path fill="#5B5A5E" d="M188.89,7.79c-0.51,1.17-1.12,2.29-1.79,3.37c-0.67,1.09-1.43,2.11-2.25,3.08l0.16-4.39L188.89,7.79z"/>
	<path fill="#5B5A5E" d="M192.74,18.37c-2.42,0.79-4.94,1.24-7.49,1.32l3.37-2.82L192.74,18.37z"/>
	<path fill="#5B5A5E" d="M198.05,19.69c-1.12-0.63-2.18-1.34-3.19-2.12c-1-0.78-1.95-1.65-2.83-2.56l4.35,0.61L198.05,19.69z"/>
	<path fill="#5B5A5E" d="M201.95,7.53c-0.94,0.85-1.95,1.65-3.01,2.35c-1.05,0.71-2.17,1.36-3.32,1.91l1.92-3.95L201.95,7.53z"/>
</g>
<path fill="#1D1D1B" d="M204.63,3.17h-1.62V2.79h3.65v0.38h-1.61v3.72h-0.42V3.17z M211.41,2.79H212v4.1h-0.42V3.35h-0.01
	l-1.81,3.55h-0.39l-1.81-3.55h-0.01V6.9h-0.42V2.8h0.61l1.83,3.56L211.41,2.79z"/>
<path fill="#1D1D1B" d="M5.6,11.89H2.22l1.7-3.82L5.6,11.89z M6.93,14.91h0.92L4.38,7.25H3.47L0,14.93h0.86l1.07-2.32h4.02
	L6.93,14.91z M33.83,11.89h-3.39l1.7-3.81L33.83,11.89z M35.17,14.91h0.92l-3.47-7.66h-0.91l-3.46,7.65h0.88l1.07-2.32h4.02
	L35.17,14.91z M38.66,8.01h3.43c0.73,0,1.57,0.22,1.57,1.35s-0.78,1.48-1.66,1.48h-3.35L38.66,8.01z M37.89,14.94h0.77v-3.37h3.07
	c1.32,0,1.84,0.45,1.86,1.81c-0.05,0.53,0.02,1.05,0.2,1.56h0.85c-0.19-0.5-0.28-1.03-0.26-1.58c-0.05-1.26-0.27-1.95-1.36-2.12l0,0
	c0.88-0.18,1.51-0.97,1.48-1.88c0-1.62-1.18-2.01-2.47-2.01H37.9L37.89,14.94z M55.49,11.89H52.1l1.71-3.82L55.49,11.89z
	 M56.83,14.91h0.91l-3.49-7.66h-0.91l-3.46,7.64h0.85l1.07-2.32h4.02L56.83,14.91z M82.32,11.89h-3.38l1.74-3.82L82.32,11.89z
	 M83.65,14.91h0.91L81.1,7.25h-0.92L76.7,14.9h0.86l1.07-2.32h4.02L83.65,14.91z M149.96,8.01h3.41c0.87,0,1.49,0.31,1.49,1.25
	c0,0.93-0.69,1.37-1.76,1.37h-3.19L149.96,8.01z M149.18,14.94h4.25c1.23,0.15,2.34-0.72,2.49-1.95c0.01-0.08,0.01-0.15,0.02-0.23
	c0.04-0.95-0.67-1.77-1.62-1.86l0,0c0.78-0.15,1.34-0.85,1.31-1.65c0.05-1.02-0.74-1.9-1.77-1.95c-0.12-0.01-0.23,0-0.35,0.02h-4.33
	V14.94z M149.96,11.34h3.53c0.92,0,1.61,0.32,1.61,1.43s-0.76,1.47-1.8,1.47h-3.34V11.34z M167.37,8.01h3.42
	c0.73,0,1.57,0.22,1.57,1.35s-0.77,1.48-1.65,1.48h-3.35L167.37,8.01z M166.59,14.94h0.78v-3.37h3.07c1.32,0,1.84,0.45,1.86,1.81
	c-0.05,0.53,0.02,1.07,0.2,1.56h0.85c-0.19-0.5-0.27-1.03-0.26-1.58c0-1.26-0.26-1.95-1.35-2.12l0,0c0.87-0.18,1.5-0.95,1.49-1.85
	c0-1.62-1.18-2.01-2.47-2.01h-4.15L166.59,14.94z M18.66,9.46c-0.1-1.31-1.17-1.65-2.4-1.65s-2.12,0.49-2.12,1.36
	s0.93,1.24,2.81,1.54c1.4,0.23,2.78,0.55,2.78,2.01c0,1.87-1.69,2.38-3.19,2.38c-1.93,0-3.35-0.66-3.46-2.7h0.71
	c0.14,1.61,1.21,2.01,2.67,2.01c1.15,0,2.35-0.31,2.35-1.52s-1.39-1.31-2.79-1.53c-1.83-0.3-2.8-0.8-2.8-2.01
	c0-1.67,1.54-2.21,3.01-2.21s3.19,0.55,3.19,2.38L18.66,9.46z M23.93,8h-3.01V7.29h6.79V8h-2.99v6.92h-0.78L23.93,8L23.93,8z
	 M59.41,7.29h0.78v6.92h4.85v0.71H59.4C59.41,14.93,59.41,7.29,59.41,7.29z M66.76,7.29h0.78v6.92h4.85v0.71h-5.64V7.29H66.76z
	 M74.21,7.29h0.78v7.65h-0.78V7.29z M86.24,7.29h0.94l5.35,6.53h0.02V7.29h0.77v7.64h-0.89l-5.39-6.51h-0.02v6.51h-0.78V7.29z
	 M103.33,12.02c-0.26,1.84-1.91,3.16-3.77,3.01c-2.08,0.14-3.88-1.43-4.02-3.5c-0.01-0.17-0.01-0.35,0-0.52
	C95.44,8.9,97.07,7.1,99.19,7c0.01,0,0.01,0,0.02,0h0.4c1.67,0,3.48,0.75,3.72,2.77h-0.84c-0.23-1.47-1.54-2.01-2.92-2.01
	c-1.63-0.13-3.06,1.09-3.2,2.71c-0.02,0.19-0.01,0.39,0.01,0.58c-0.16,1.66,1.05,3.12,2.71,3.29c0.16,0.01,0.31,0.02,0.47,0.01
	c1.47,0.19,2.81-0.84,3-2.31c0-0.01,0-0.03,0.01-0.04l0,0L103.33,12.02z M105.63,7.29h6.07V8h-5.29v2.6h5.1v0.72h-5.1v2.88h5.39
	v0.71h-6.16C105.63,14.93,105.63,7.29,105.63,7.29z M125.77,7.29h1.11v7.64h-0.78v-6.6h-0.01l-3.38,6.6h-0.72l-3.37-6.6h-0.02v6.6
	h-0.78V7.29h1.16l3.4,6.64L125.77,7.29z M129.45,7.29h6.08V8h-5.28v2.6h5.08v0.72h-5.08v2.88h5.38v0.71h-6.17L129.45,7.29
	L129.45,7.29z M145.62,7.29h1.12v7.64h-0.77v-6.6h-0.03l-3.37,6.6h-0.73l-3.36-6.6h-0.02v6.6h-0.78V7.29h1.15l3.4,6.64L145.62,7.29z
	 M158.25,7.29h6.07V8h-5.28v2.6h5.09v0.72h-5.09v2.88h5.38v0.71h-6.16V7.29H158.25z"/>
</svg>
