<?xml version="1.0" encoding="utf-8"?>
<svg version="1.1" id="Layer_1" xmlns="http://www.w3.org/2000/svg" xmlns:xlink="http://www.w3.org/1999/xlink" viewBox="0 0 208 53" width="208" height="53">
    <title>Unbenannt-4</title>
    <path fill="#FBBA00" d="M41.9,0l6.8,11.5L55.5,0h11.1l-12,19.8l13.7,22.1h-12L48.8,28l-8,13.9H29l13.9-22.1L30.4,0H41.9z"/>
    <path fill="#1C205C" d="M31.6,32.4c-0.6,6.1-7,10.8-15.1,10.8C6.5,43.2,0,36.7,0,26.9c0-9.6,6.8-16.4,16.4-16.4
                        		c9.8,0,15.8,6.8,15.8,17.7c0,0.3,0,0.7-0.1,1h-22c0.6,4.4,2.8,6.8,6.3,6.8c2.4,0.1,4.7-1.3,5.5-3.6H31.6z M21.8,22.8
                        		c0.1-2.9-2.2-5.3-5.1-5.4l0,0h-0.5c-3-0.2-5.6,2.1-5.8,5.1c0,0.1,0,0.2,0,0.2L21.8,22.8z M69.3,11.8h9.5l0.3,2.8
                        		c2.4-2.4,5.6-3.7,9-3.7c8.2,0,13.9,6.8,13.9,16.7c0,9.2-5.7,15.6-13.8,15.6c-3.4,0.1-6.6-1.2-9.1-3.5v12.9h-9.9V11.8H69.3z
                        		 M79.6,27.3c0,5.5,2.1,8.4,6.1,8.4s6.1-2.8,6.1-8.6s-1.9-8.3-6-8.3C81.8,18.8,79.6,21.6,79.6,27.3L79.6,27.3z M134.9,32.4
                        		c-0.6,6.1-7,10.8-15.1,10.8c-10,0-16.5-6.5-16.5-16.3c0-9.6,6.8-16.4,16.4-16.4c9.8,0,15.8,6.8,15.8,17.7c0,0.3,0,0.7-0.1,1h-22.1
                        		c0.6,4.4,2.8,6.8,6.3,6.8c2.4,0.1,4.7-1.3,5.5-3.6L134.9,32.4z M125.1,22.8c0.1-2.9-2.2-5.3-5.1-5.4l0,0h-0.5
                        		c-3-0.2-5.6,2.1-5.8,5.2l0,0c0,0.1,0,0.2,0,0.2H125.1z M145.9,11.8l0.3,3.2c1.9-2.6,4.9-4.2,8.2-4.1c0.7,0,1.3,0.1,1.9,0.2v8.2
                        		c-0.5-0.1-1.1-0.2-1.6-0.2c-2.6-0.1-5,1.1-6.5,3.2c-1,1.6-1.4,3.1-1.4,6.5v13.1H137V11.7L145.9,11.8z M171.8,2.3v9.4h5.7v6.7h-5.7
                        		v11.9c0.1,3.5,0.1,3.5,0.8,4c1,0.5,2.2,0.7,3.3,0.6h2v6.9h-7.5c-5.9,0-8.5-2.6-8.5-8.8V18.5h-4.2v-6.7h4.2V2.3H171.8z M197.8,21.2
                        		c-0.2-2.8-1.5-4-4.5-4c-2.5,0-4,0.9-4,2.5c0,1,0.5,1.7,1.8,2.1c1,0.3,1.9,0.6,2.9,0.8l3.4,0.6c7.2,1.2,10.5,4.2,10.5,9.4
                        		c0,6.5-5.5,10.5-14.1,10.5c-6.3,0-11.1-1.7-13.5-4.7c-1.5-1.9-2.2-4.2-2-6.6h9.6c0.1,2.9,1.9,4.5,5.5,4.5c2.8,0,4.6-1.1,4.6-2.8
                        		s-1.7-2.8-5.5-3.5l-3.1-0.5c-7.1-1.2-10.2-3.8-10.2-8.5c0-6.5,5.5-10.6,14.4-10.6c6.1,0,10.4,1.8,12.2,5.3c0.9,1.6,1.3,3.5,1.2,5.3
                        		L197.8,21.2z"/>
</svg>